<?xml version="1.0" encoding="UTF-8"?>
<svg id="Capa_1" data-name="Capa 1" xmlns="http://www.w3.org/2000/svg" viewBox="0 0 489.87 198.05">
  <path d="M390.84,0c-34.27,0-64.48,17.41-82.25,43.87h49.17v26.04h-36.79v12.81h32.38v24.58h-32.38v14.71h36.79v26.06h-52.96c17.06,29.85,49.2,49.97,86.04,49.97,54.69,0,99.03-44.34,99.03-99.03S445.53,0,390.84,0Z"/>
  <g>
    <path d="M32.69,123.35h31.5v24.73H0V43.87h32.69v79.48Z"/>
    <path d="M86.67,123.35h31.5v24.73H53.99V43.87h32.69v79.48Z"/>
    <path d="M174.81,132.33h-34.75l-5.15,15.75h-34.29l38.13-104.21h37.67l37.98,104.21h-34.44l-5.15-15.75ZM166.85,107.75l-9.42-29-9.42,29h18.83Z"/>
    <path d="M306.2,43.87l-35.04,104.21h-42.25l-35.02-104.21h34.73l21.5,71.69,21.33-71.69h34.75Z"/>
  </g>
</svg>